<?xml version="1.0" encoding="UTF-8"?>
<svg width="126px" height="140px" viewBox="0 0 126 140" version="1.1" xmlns="http://www.w3.org/2000/svg" xmlns:xlink="http://www.w3.org/1999/xlink">
    <!-- Generator: Sketch 54.1 (76490) - https://sketchapp.com -->
    <title>LOGO</title>
    <desc>Created with Sketch.</desc>
    <defs>
        <polygon id="path-1" points="0.225453435 0.894947726 58.1610229 0.894947726 58.1610229 97.8079892 0.225453435 97.8079892"></polygon>
        <polygon id="path-3" points="0 0.903458659 57.9357618 0.903458659 57.9357618 98.7667974 0 98.7667974"></polygon>
        <polygon id="path-5" points="0 139.858082 125.489267 139.858082 125.489267 0 0 0"></polygon>
    </defs>
    <g id="Symbols" stroke="none" stroke-width="1" fill="none" fill-rule="evenodd">
        <g id="Header" transform="translate(-90.000000, -21.000000)">
            <g id="LOGO" transform="translate(90.000000, 21.000000)">
                <g id="Group-29">
                    <g id="Group-3" transform="translate(67.328244, 42.049863)">
                        <mask id="mask-2" fill="white">
                            <use xlink:href="#path-1"></use>
                        </mask>
                        <g id="Clip-2"></g>
                        <path d="M36.3008885,50.1993973 C36.3008885,51.6952877 35.239026,53.5296712 33.9395908,54.2766575 L2.58675115,72.3241918 C1.28827786,73.072137 0.225453435,74.9065205 0.225453435,76.4014521 L0.225453435,96.1299452 C0.225453435,97.6248767 1.28827786,98.2366575 2.58675115,97.4887123 L55.8001099,66.8593973 C57.0985832,66.112411 58.1614076,64.2780274 58.1614076,62.782137 L58.1614076,2.57350685 C58.1614076,1.07761644 57.0985832,0.466794521 55.8001099,1.21378082 L38.6621863,11.0789863 C37.3627511,11.8259726 36.3008885,13.6613151 36.3008885,15.1562466 L36.3008885,50.1993973 Z" id="Fill-1" fill="#5DC196" mask="url(#mask-2)"></path>
                    </g>
                    <path d="M60.3837206,25.7261507 C61.6821939,24.9791644 63.8078427,24.9791644 65.106316,25.7261507 L97.3709725,44.2982055 C98.6694458,45.0451918 100.794133,45.0451918 102.092606,44.2982055 L119.231492,34.4339589 C120.529965,33.6869726 120.529965,32.4624521 119.231492,31.7154658 L65.106316,0.560671233 C63.8078427,-0.186315068 61.6821939,-0.186315068 60.3837206,0.560671233 L7.08379695,31.2398493 C5.78532366,31.9877945 5.78532366,33.2113562 7.08379695,33.9583425 L24.2226824,43.822589 C25.5211557,44.5705342 27.6458427,44.5705342 28.944316,43.822589 L60.3837206,25.7261507 Z" id="Fill-4" fill="#1D99DD"></path>
                    <g id="Group-8" transform="translate(0.000000, 41.090959)">
                        <mask id="mask-4" fill="white">
                            <use xlink:href="#path-3"></use>
                        </mask>
                        <g id="Clip-7"></g>
                        <path d="M24.2216244,55.2354658 C22.9231511,54.4884795 21.8603267,52.6540959 21.8603267,51.1582055 L21.8603267,15.1638219 C21.8603267,13.6679315 20.7975023,11.8335479 19.499029,11.0865616 L2.36110534,1.22231507 C1.06263206,0.475328767 -0.000192366412,1.08615068 -0.000192366412,2.58108219 L-0.000192366412,63.7409452 C-0.000192366412,65.2368356 1.06263206,67.0712192 2.36110534,67.8182055 L55.5744641,98.4475205 C56.8729374,99.1954658 57.9357618,98.5836849 57.9357618,97.0887534 L57.9357618,77.3602603 C57.9357618,75.8653288 56.8729374,74.0309452 55.5744641,73.283 L24.2216244,55.2354658 Z" id="Fill-6" fill="#D1D81A" mask="url(#mask-4)"></path>
                    </g>
                    <path d="M54.0431313,54.3041781 L43.2638794,67.8122603 L32.7558641,54.3041781 L29.7087802,54.3041781 L29.7087802,80.7286986 L35.9491466,80.7286986 L35.9491466,69.0588356 L42.5588565,76.2534932 L42.8425969,76.5507534 C42.8425969,76.5507534 43.0166885,76.7128082 43.2205969,76.7128082 C43.4177725,76.7128082 43.5860931,76.5507534 43.5860931,76.5507534 L50.7142305,68.3655479 L50.7142305,80.7286986 L57.1258031,80.7286986 L57.1258031,54.3041781 L54.0431313,54.3041781 Z" id="Fill-9" fill="#1A1A1A"></path>
                    <path d="M67.2133053,60.3731781 C68.1241603,59.733589 69.9054733,59.6453699 71.8926183,60.3271507 C72.8409847,60.6531781 73.7893511,61.0731781 74.7117481,61.5775616 L75.3706031,61.9371507 L77.8723282,56.9029041 L77.3394733,56.553863 C76.293,55.8663288 75.0984046,55.2679726 73.7883893,54.7731781 C72.4466336,54.2668767 70.6980229,54.0098904 68.5579466,54.0098904 L68.5492901,54.0098904 C66.8949389,54.0818082 65.4089084,54.4615342 64.1315954,55.1346849 C62.8321603,55.8203014 61.8097328,56.7648219 61.0941298,57.9433151 C60.3766031,59.1218082 60.0130305,60.523726 60.0130305,62.1078356 C60.0130305,63.4292055 60.2659924,64.5722192 60.7651832,65.504274 C61.2576412,66.4219452 61.9107252,67.1996164 62.7071221,67.8171507 C63.4660076,68.4059178 64.2893359,68.9103014 65.1540229,69.3168767 C65.9831221,69.7081096 66.8074122,70.0600274 67.6057328,70.364 C68.2222672,70.5979726 68.7993664,70.8770137 69.3177939,71.1934521 C69.8044809,71.4916712 70.1920992,71.8157808 70.4691069,72.1581096 C70.6970611,72.4400274 70.8067099,72.7392055 70.8067099,73.073863 C70.8067099,73.6127671 70.6778244,74.0078356 70.4113969,74.2811233 C70.0988015,74.6013973 69.7102214,74.823863 69.2235344,74.9609863 C68.1424351,75.2687945 67.1315496,75.2716712 65.8484656,74.9389315 C65.1896107,74.7711233 64.5240229,74.5275616 63.8699771,74.2178356 C63.2159313,73.9081096 62.6042061,73.5466027 62.0511527,73.1419452 L61.3971069,72.664411 L58.4789084,77.8012603 L59.0213817,78.1752329 C59.9533969,78.8176986 60.9315802,79.353726 61.9299618,79.7679726 C62.9273817,80.1822192 63.9603893,80.4948219 64.9991679,80.6981096 C66.0369847,80.8994795 67.0690305,81.0020822 68.0674122,81.0020822 C70.0487863,81.0020822 71.7531527,80.6348219 73.1324198,79.9118082 C74.523229,79.1811233 75.5975954,78.2020822 76.3257023,76.9986575 C77.054771,75.7971507 77.4241145,74.4767397 77.4241145,73.073863 C77.4241145,71.7793425 77.2327099,70.6593425 76.8556718,69.7426301 C76.4776718,68.8259178 75.9621298,68.044411 75.3225115,67.4182466 C74.7021298,66.8131781 73.9932595,66.3011233 73.2170611,65.8955068 C72.4774122,65.5081096 71.7175649,65.1686575 70.9567557,64.883863 C70.1853664,64.5981096 69.4303282,64.2749589 68.7108779,63.9220822 C68.0433664,63.594137 67.4970458,63.2211233 67.0863435,62.8116712 C66.751626,62.4770137 66.5948473,62.1346849 66.5948473,61.7319452 C66.5948473,61.1019452 66.7920229,60.6694795 67.2133053,60.3731781" id="Fill-11" fill="#1A1A1A"></path>
                    <path d="M94.7011191,67.417863 C94.0807374,66.8127945 93.372829,66.3007397 92.5956687,65.8951233 C91.8560198,65.5086849 91.0961725,65.168274 90.3353634,64.8834795 C89.563974,64.5986849 88.8089359,64.2755342 88.0894855,63.9216986 C87.421974,63.5947123 86.8756534,63.2207397 86.4649511,62.8112877 C86.1302336,62.477589 85.9744168,62.1343014 85.9744168,61.7315616 C85.9744168,61.1015616 86.1706305,60.6690959 86.591913,60.3727945 C87.5037298,59.7332055 89.2840809,59.6459452 91.271226,60.3267671 C92.2195924,60.6527945 93.1679588,61.0737534 94.0903557,61.5771781 L94.7492107,61.9367671 L97.2509359,56.9025205 L96.7180809,56.5534795 C95.6725695,55.8659452 94.477974,55.267589 93.1669969,54.7727945 C91.8262031,54.2664932 90.0766305,54.0104658 87.937516,54.0104658 L87.9278977,54.0104658 C86.2735466,54.0823836 84.787516,54.4611507 83.5111649,55.1343014 C82.2117298,55.8199178 81.1893023,56.7653973 80.4727374,57.9429315 C79.7552107,59.1223836 79.3916382,60.5243014 79.3916382,62.1074521 C79.3916382,63.4288219 79.6446,64.5718356 80.1447527,65.5038904 C80.6362489,66.4215616 81.2893328,67.1992329 82.0857298,67.8167671 C82.8446153,68.4055342 83.6679435,68.9108767 84.5335924,69.3164932 C85.3626916,69.7086849 86.1860198,70.0596438 86.9843405,70.3636164 C87.6018366,70.597589 88.177974,70.8766301 88.6964015,71.1940274 C89.1840504,71.4912877 89.5716687,71.8153973 89.8486763,72.157726 C90.0756687,72.4396438 90.1862794,72.7397808 90.1862794,73.0734795 C90.1862794,73.6123836 90.0564321,74.0074521 89.7909664,74.2807397 C89.4774092,74.6010137 89.0897908,74.8244384 88.602142,74.9606027 C87.5210427,75.2693699 86.5111191,75.2712877 85.2270733,74.9395068 C84.5682183,74.7707397 83.9026305,74.5271781 83.2485847,74.2174521 C82.5955008,73.9086849 81.9828137,73.5471781 81.4307221,73.1425205 L80.7757145,72.6649863 L77.8584779,77.8008767 L78.3999893,78.1758082 C79.3320046,78.818274 80.3111496,79.3533425 81.3085695,79.767589 C82.3069511,80.1827945 83.3389969,80.4953973 84.3787374,80.6986849 C85.4165542,80.9000548 86.4476382,81.0016986 87.4460198,81.0016986 C89.4283557,81.0016986 91.1317603,80.6344384 92.5110275,79.9114247 C93.9018366,79.1816986 94.9762031,78.2016986 95.7043099,76.998274 C96.4333786,75.7967671 96.8027221,74.4763562 96.8027221,73.0734795 C96.8027221,71.7789589 96.6113176,70.6589589 96.2352412,69.7432055 C95.8572412,68.8264932 95.3416992,68.0440274 94.7011191,67.417863" id="Fill-13" fill="#1A1A1A"></path>
                    <mask id="mask-6" fill="white">
                        <use xlink:href="#path-5"></use>
                    </mask>
                    <g id="Clip-16"></g>
                    <polygon id="Fill-15" fill="#1A1A1A" mask="url(#mask-6)" points="29.7081069 91.7306849 30.4900763 91.7306849 30.4900763 85.9187671 29.7081069 85.9187671"></polygon>
                    <polygon id="Fill-17" fill="#1A1A1A" mask="url(#mask-6)" points="36.4802702 90.1244247 32.2078122 85.7422329 32.1674153 85.7422329 32.1674153 91.730589 32.9493847 91.730589 32.9339954 87.5871644 37.2151099 91.9146986 37.2391557 91.9146986 37.2391557 85.9186712 36.4648809 85.9186712"></polygon>
                    <polygon id="Fill-18" fill="#1A1A1A" mask="url(#mask-6)" points="38.4879985 86.6671918 40.0115405 86.6671918 40.0115405 91.7302055 40.7935099 91.7302055 40.7935099 86.6671918 42.3574489 86.6671918 42.3574489 85.9192466 38.4879985 85.9192466"></polygon>
                    <polygon id="Fill-19" fill="#1A1A1A" mask="url(#mask-6)" points="44.3810473 89.1823973 47.0664824 89.1823973 47.0664824 88.435411 44.3810473 88.435411 44.3810473 86.6671918 47.3886962 86.6671918 47.3886962 85.9192466 43.5990779 85.9192466 43.5990779 91.7302055 47.5012305 91.7302055 47.5012305 90.9832192 44.3810473 90.9832192"></polygon>
                    <path d="M50.484545,88.8452466 L49.6381328,88.8452466 L49.6381328,86.6675753 L50.5412931,86.6675753 C50.7452015,86.6675753 50.9183313,86.7020959 51.0606824,86.771137 C51.2030336,86.841137 51.3194153,86.9293562 51.406942,87.0357945 C51.4963924,87.1441507 51.5608351,87.2601781 51.6012321,87.3867534 C51.641629,87.511411 51.6618275,87.6341507 51.6618275,87.751137 C51.6618275,87.8642877 51.6425908,87.9851096 51.6050794,88.1136027 C51.5675679,88.2420959 51.5060107,88.361 51.4194458,88.471274 C51.3338427,88.5815479 51.2136137,88.670726 51.0606824,88.740726 C50.9077511,88.8097671 50.7153847,88.8452466 50.484545,88.8452466 M52.0321328,88.9929178 C52.1879496,88.8145616 52.2995221,88.6151096 52.3668504,88.3945616 C52.4341786,88.1749726 52.4678427,87.9496301 52.4678427,87.7194932 C52.4678427,87.4251096 52.414942,87.1662055 52.3101023,86.9446986 C52.2062244,86.721274 52.0609878,86.5342877 51.8753542,86.3818219 C51.6897206,86.2283973 51.4723466,86.1133288 51.2222702,86.0356575 C50.9721939,85.9579863 50.6999954,85.9186712 50.4037511,85.9186712 L48.8561634,85.9186712 L48.8561634,91.730589 L49.6381328,91.730589 L49.6381328,89.5922329 L50.5008962,89.5922329 C50.5682244,89.5922329 50.6240107,89.5816849 50.6874916,89.5778493 L52.0648351,91.730589 L52.9679954,91.730589 L51.504087,89.3831918 C51.7147282,89.2786712 51.8945908,89.151137 52.0321328,88.9929178" id="Fill-20" fill="#1A1A1A" mask="url(#mask-6)"></path>
                    <polygon id="Fill-21" fill="#1A1A1A" mask="url(#mask-6)" points="58.4812168 90.1244247 54.2087588 85.7422329 54.1683618 85.7422329 54.1683618 91.730589 54.9503313 91.730589 54.934942 87.5871644 59.2160565 91.9146986 59.2401023 91.9146986 59.2401023 85.9186712 58.4658275 85.9186712"></polygon>
                    <path d="M62.0049847,89.5279863 L62.8744809,87.4068904 L63.7093511,89.5279863 L62.0049847,89.5279863 Z M62.8840992,85.6779863 L60.3362061,91.730589 L61.1018244,91.730589 L61.7279771,90.2030548 L63.9748168,90.2030548 L64.5769237,91.730589 L65.4714275,91.730589 L62.9321908,85.6779863 L62.8840992,85.6779863 Z" id="Fill-22" fill="#1A1A1A" mask="url(#mask-6)"></path>
                    <polygon id="Fill-23" fill="#1A1A1A" mask="url(#mask-6)" points="65.6893786 86.6671918 67.2129206 86.6671918 67.2129206 91.7302055 67.9948901 91.7302055 67.9948901 86.6671918 69.558829 86.6671918 69.558829 85.9192466 65.6893786 85.9192466"></polygon>
                    <polygon id="Fill-24" fill="#1A1A1A" mask="url(#mask-6)" points="70.800458 91.7306849 71.5824275 91.7306849 71.5824275 85.9187671 70.800458 85.9187671"></polygon>
                    <path d="M77.8794458,89.692726 C77.7659496,89.9573836 77.6130183,90.1923151 77.4196901,90.3956027 C77.2263618,90.5998493 76.9974458,90.7590274 76.7348656,90.8740959 C76.4713237,90.9901233 76.188545,91.0466986 75.8884534,91.0466986 C75.581629,91.0466986 75.2969267,90.9901233 75.0333847,90.8740959 C74.7698427,90.7590274 74.5390031,90.5998493 74.3399038,90.3956027 C74.1408046,90.1923151 73.9849878,89.9573836 73.8724534,89.692726 C73.7599191,89.4280685 73.703171,89.1423151 73.703171,88.8364247 C73.703171,88.5314932 73.7570336,88.242863 73.8647588,87.9724521 C73.972484,87.7020411 74.1254153,87.4651918 74.3235527,87.2619041 C74.5226519,87.0576575 74.7534916,86.8975205 75.0170336,86.7795753 C75.2805756,86.6616301 75.5652779,86.6021781 75.8721023,86.6021781 C76.1731557,86.6021781 76.4549725,86.6597123 76.7185145,86.7747808 C76.9810947,86.8908082 77.2128962,87.0499863 77.4119954,87.253274 C77.6101328,87.4575205 77.7659496,87.6943699 77.8794458,87.9647808 C77.9919802,88.2351918 78.0487282,88.522863 78.0487282,88.8287534 C78.0487282,89.1394384 77.9919802,89.4280685 77.8794458,89.692726 M77.9717817,86.743137 C77.6957359,86.4669726 77.3783313,86.2502603 77.0205298,86.0920411 C76.6627282,85.9338219 76.2799191,85.8551918 75.8721023,85.8551918 C75.4575527,85.8551918 75.0728198,85.9338219 74.7150183,86.0920411 C74.3572168,86.2502603 74.0417359,86.4669726 73.7676137,86.743137 C73.4934916,87.0193014 73.2799649,87.3347808 73.1270336,87.6914932 C72.9731405,88.0482055 72.8971557,88.4269726 72.8971557,88.8287534 C72.8971557,89.252589 72.9731405,89.642863 73.1270336,90.0024521 C73.2799649,90.3610822 73.4934916,90.6746438 73.7676137,90.943137 C74.0417359,91.2106712 74.3572168,91.4197123 74.7150183,91.5693014 C75.0728198,91.7198493 75.4575527,91.7946438 75.8721023,91.7946438 C76.2799191,91.7946438 76.6627282,91.7179315 77.0205298,91.5654658 C77.3783313,91.413 77.6957359,91.2010822 77.9717817,90.9306712 C78.2487893,90.6602603 78.4652015,90.3457397 78.6210183,89.9861507 C78.7768351,89.6275205 78.8547435,89.2410822 78.8547435,88.8287534 C78.8547435,88.4269726 78.7768351,88.0482055 78.6210183,87.6914932 C78.4652015,87.3347808 78.2487893,87.0193014 77.9717817,86.743137" id="Fill-25" fill="#1A1A1A" mask="url(#mask-6)"></path>
                    <polygon id="Fill-26" fill="#1A1A1A" mask="url(#mask-6)" points="84.4811725 90.1244247 80.2087145 85.7422329 80.1683176 85.7422329 80.1683176 91.730589 80.950287 91.730589 80.9348977 87.5871644 85.2160122 91.9146986 85.240058 91.9146986 85.240058 85.9186712 84.4657832 85.9186712"></polygon>
                    <path d="M88.0049405,89.5279863 L88.8744366,87.4068904 L89.7093069,89.5279863 L88.0049405,89.5279863 Z M88.884055,85.6779863 L86.3361618,91.730589 L87.1017802,91.730589 L87.7279328,90.2030548 L89.9747725,90.2030548 L90.5768794,91.730589 L91.4713832,91.730589 L88.9321466,85.6779863 L88.884055,85.6779863 Z" id="Fill-27" fill="#1A1A1A" mask="url(#mask-6)"></path>
                    <polygon id="Fill-28" fill="#1A1A1A" mask="url(#mask-6)" points="93.3500336 90.9831233 93.3500336 85.9191507 92.5680641 85.9191507 92.5680641 91.7301096 96.3095908 91.7301096 96.3095908 90.9831233"></polygon>
                </g>
            </g>
        </g>
    </g>
</svg>